<?xml version="1.0" encoding="UTF-8"?>

<!DOCTYPE svg PUBLIC '-//W3C//DTD SVG 1.0//EN' 'http://www.w3.org/TR/2001/REC-SVG-20010904/DTD/svg10.dtd'>
<svg style="fill-opacity:1; color-rendering:auto; color-interpolation:auto; stroke:black; text-rendering:auto; stroke-linecap:square; stroke-miterlimit:10; stroke-opacity:1; shape-rendering:auto; fill:black; stroke-dasharray:none; font-weight:normal; stroke-width:1; font-family:&apos;Dialog&apos;; font-style:normal; stroke-linejoin:miter; font-size:12; stroke-dashoffset:0; image-rendering:auto;" xmlns="http://www.w3.org/2000/svg" width="862" xmlns:xlink="http://www.w3.org/1999/xlink" height="689">
  <!--Generated by the Batik Graphics2D SVG Generator-->
  <defs id="genericDefs" />
  <g>
    <defs id="defs1">
      <linearGradient x1="200.5" gradientUnits="userSpaceOnUse" x2="200.5" y1="152" y2="129" id="linearGradient1" spreadMethod="pad">
        <stop style="stop-opacity:1; stop-color:rgb(211,227,244);" offset="0%" />
        <stop style="stop-opacity:1; stop-color:white;" offset="100%" />
      </linearGradient>
      <linearGradient x1="336" gradientUnits="userSpaceOnUse" x2="336" y1="153" y2="130" id="linearGradient2" spreadMethod="pad">
        <stop style="stop-opacity:1; stop-color:rgb(211,227,244);" offset="0%" />
        <stop style="stop-opacity:1; stop-color:white;" offset="100%" />
      </linearGradient>
      <linearGradient x1="465.5" gradientUnits="userSpaceOnUse" x2="465.5" y1="153" y2="130" id="linearGradient3" spreadMethod="pad">
        <stop style="stop-opacity:1; stop-color:rgb(211,227,244);" offset="0%" />
        <stop style="stop-opacity:1; stop-color:white;" offset="100%" />
      </linearGradient>
      <linearGradient x1="603.5" gradientUnits="userSpaceOnUse" x2="603.5" y1="153" y2="130" id="linearGradient4" spreadMethod="pad">
        <stop style="stop-opacity:1; stop-color:rgb(211,227,244);" offset="0%" />
        <stop style="stop-opacity:1; stop-color:white;" offset="100%" />
      </linearGradient>
      <linearGradient x1="44.5" gradientUnits="userSpaceOnUse" x2="44.5" y1="153" y2="130" id="linearGradient5" spreadMethod="pad">
        <stop style="stop-opacity:1; stop-color:rgb(211,227,244);" offset="0%" />
        <stop style="stop-opacity:1; stop-color:white;" offset="100%" />
      </linearGradient>
      <clipPath clipPathUnits="userSpaceOnUse" id="clipPath1">
        <path d="M0 67 L671 67 L671 604 L0 604 L0 67 Z" />
      </clipPath>
      <clipPath clipPathUnits="userSpaceOnUse" id="clipPath2">
        <path d="M157 128 L244 128 L244 570 L157 570 L157 128 Z" />
      </clipPath>
      <clipPath clipPathUnits="userSpaceOnUse" id="clipPath3">
        <path d="M281 129 L391 129 L391 571 L281 571 L281 129 Z" />
      </clipPath>
      <clipPath clipPathUnits="userSpaceOnUse" id="clipPath4">
        <path d="M413 129 L518 129 L518 571 L413 571 L413 129 Z" />
      </clipPath>
      <clipPath clipPathUnits="userSpaceOnUse" id="clipPath5">
        <path d="M555 129 L652 129 L652 571 L555 571 L555 129 Z" />
      </clipPath>
      <clipPath clipPathUnits="userSpaceOnUse" id="clipPath6">
        <path d="M18 85 L71 85 L71 585 L18 585 L18 85 Z" />
      </clipPath>
      <clipPath clipPathUnits="userSpaceOnUse" id="clipPath7">
        <path d="M0 67 L0 604 L671 604 L671 67 Z" />
      </clipPath>
    </defs>
    <g style="fill:white; stroke:white;">
      <rect x="0" y="0" width="862" style="stroke:none;" height="689" />
      <rect x="0" y="67" width="670" style="clip-path:url(#clipPath1); stroke:none;" height="536" />
    </g>
    <g style="fill:url(#linearGradient1); text-rendering:optimizeLegibility; color-rendering:optimizeQuality; image-rendering:optimizeQuality; shape-rendering:geometricPrecision; color-interpolation:linearRGB; stroke:url(#linearGradient1);">
      <rect x="158" y="129" width="85" style="clip-path:url(#clipPath2); stroke:none;" height="23" />
      <rect x="158" y="129" width="85" style="clip-path:url(#clipPath2); fill:none; stroke:black;" height="23" />
    </g>
    <g style="font-size:14; text-rendering:optimizeLegibility; color-rendering:optimizeQuality; image-rendering:optimizeQuality; font-family:sans-serif; shape-rendering:geometricPrecision; color-interpolation:linearRGB; font-weight:bold;">
      <path d="M164.90625 145 L161.171875 134.875 L163.421875 134.875 L166.3125 142.703125 L169.125 134.875 L170.640625 134.875 L167.015625 145 L164.90625 145 ZM176.4853515625 145.25 Q174.1728515625 145.25 172.7978515625 143.8046875 Q171.4228515625 142.359375 171.4228515625 139.9375 Q171.4228515625 137.5 172.8056640625 136.0625 Q174.1884765625 134.625 176.5478515625 134.625 Q178.8916015625 134.625 180.2822265625 136.0625 Q181.6728515625 137.5 181.6728515625 139.921875 Q181.6728515625 142.390625 180.2822265625 143.8203125 Q178.8916015625 145.25 176.4853515625 145.25 ZM176.5166015625 143.859375 Q177.8603515625 143.859375 178.6494140625 142.796875 Q179.4384765625 141.734375 179.4384765625 139.90625 Q179.4384765625 138.15625 178.6494140625 137.0859375 Q177.8603515625 136.015625 176.5478515625 136.015625 Q175.2353515625 136.015625 174.4462890625 137.0859375 Q173.6572265625 138.15625 173.6572265625 139.9375 Q173.6572265625 141.703125 174.4384765625 142.78125 Q175.2197265625 143.859375 176.5166015625 143.859375 ZM191.7138671875 144.59375 Q190.2451171875 145.25 188.2138671875 145.25 Q185.7138671875 145.25 184.3310546875 143.8515625 Q182.9482421875 142.453125 182.9482421875 139.9375 Q182.9482421875 137.390625 184.3466796875 136.0078125 Q185.7451171875 134.625 188.3232421875 134.625 Q189.9794921875 134.625 191.6201171875 135.015625 L191.6201171875 136.671875 Q189.7607421875 136.015625 188.5107421875 136.015625 Q186.9169921875 136.015625 186.0498046875 137.03125 Q185.1826171875 138.046875 185.1826171875 139.90625 Q185.1826171875 141.75 186.1123046875 142.7734375 Q187.0419921875 143.796875 188.7138671875 143.796875 Q190.1982421875 143.796875 191.7138671875 143.046875 L191.7138671875 144.59375 ZM193.546875 145 L193.546875 134.203125 L195.5625 134.203125 L195.5625 145 L193.546875 145 ZM198.099609375 145 L198.099609375 137.5 L200.115234375 137.5 L200.115234375 145 L198.099609375 145 ZM198.099609375 136.234375 L198.099609375 134.546875 L200.115234375 134.546875 L200.115234375 136.234375 L198.099609375 136.234375 ZM208.76171875 144.75 Q207.32421875 145.171875 206.02734375 145.171875 Q204.15234375 145.171875 203.06640625 144.1015625 Q201.98046875 143.03125 201.98046875 141.1875 Q201.98046875 139.453125 202.97265625 138.390625 Q203.96484375 137.328125 205.60546875 137.328125 Q207.24609375 137.328125 208.00390625 138.3671875 Q208.76171875 139.40625 208.76171875 141.65625 L204.10546875 141.65625 Q204.30859375 143.796875 206.46484375 143.796875 Q207.48046875 143.796875 208.76171875 143.328125 L208.76171875 144.75 ZM204.07421875 140.515625 L206.77734375 140.515625 Q206.77734375 138.59375 205.54296875 138.59375 Q204.27734375 138.59375 204.07421875 140.515625 ZM210.85546875 145 L210.85546875 137.5 L212.87109375 137.5 L212.87109375 138.90625 Q213.87109375 137.328125 215.43359375 137.328125 Q216.43359375 137.328125 217.01953125 137.9609375 Q217.60546875 138.59375 217.60546875 139.6875 L217.60546875 145 L215.57421875 145 L215.57421875 140.1875 Q215.57421875 138.921875 214.73046875 138.921875 Q213.76171875 138.921875 212.87109375 140.28125 L212.87109375 145 L210.85546875 145 ZM223.9248046875 144.953125 Q223.1904296875 145.171875 222.7841796875 145.171875 Q220.1435546875 145.171875 220.1435546875 142.703125 L220.1435546875 138.765625 L219.2998046875 138.765625 L219.2998046875 137.5 L220.1435546875 137.5 L220.1435546875 136.234375 L222.1748046875 136 L222.1748046875 137.5 L223.7685546875 137.5 L223.7685546875 138.765625 L222.1748046875 138.765625 L222.1748046875 142.4375 Q222.1748046875 143.828125 223.2998046875 143.828125 Q223.5498046875 143.828125 223.9248046875 143.734375 L223.9248046875 144.953125 ZM229.791015625 145 L229.791015625 142.96875 L231.806640625 142.96875 L231.806640625 145 L229.791015625 145 ZM229.791015625 139.515625 L229.791015625 137.5 L231.806640625 137.5 L231.806640625 139.515625 L229.791015625 139.515625 Z" style="clip-path:url(#clipPath2); stroke:none;" />
    </g>
    <g style="color-rendering:optimizeQuality; color-interpolation:linearRGB; text-rendering:optimizeLegibility; stroke:green; stroke-linecap:butt; stroke-miterlimit:1; shape-rendering:geometricPrecision; fill:green; stroke-dasharray:20,5; font-family:sans-serif; font-size:11; image-rendering:optimizeQuality;">
      <line x1="201" x2="201" y1="153" style="clip-path:url(#clipPath2); fill:none;" y2="570" />
    </g>
    <g style="font-size:11; fill:rgb(72,167,244); text-rendering:optimizeLegibility; color-rendering:optimizeQuality; image-rendering:optimizeQuality; font-family:sans-serif; shape-rendering:geometricPrecision; color-interpolation:linearRGB; stroke:rgb(72,167,244);">
      <rect x="197" y="183" width="9" style="clip-path:url(#clipPath2); stroke:none;" height="35" />
      <rect x="197" y="235" width="9" style="clip-path:url(#clipPath2); stroke:none;" height="53" />
      <rect x="202" y="244" width="9" style="clip-path:url(#clipPath2); fill:white; stroke:none;" height="35" />
    </g>
    <g style="font-size:11; stroke-linecap:butt; text-rendering:optimizeLegibility; color-rendering:optimizeQuality; image-rendering:optimizeQuality; font-family:sans-serif; shape-rendering:geometricPrecision; stroke-dasharray:4,4; color-interpolation:linearRGB;">
      <line x1="202" x2="210" y1="244" style="clip-path:url(#clipPath2); fill:none;" y2="244" />
      <line x1="211" x2="211" y1="244" style="clip-path:url(#clipPath2); fill:none;" y2="278" />
      <line x1="211" x2="203" y1="279" style="clip-path:url(#clipPath2); fill:none;" y2="279" />
      <line x1="202" x2="202" y1="279" style="clip-path:url(#clipPath2); fill:none;" y2="245" />
    </g>
    <g style="font-size:11; fill:rgb(72,167,244); text-rendering:optimizeLegibility; color-rendering:optimizeQuality; image-rendering:optimizeQuality; font-family:sans-serif; shape-rendering:geometricPrecision; color-interpolation:linearRGB; stroke:rgb(72,167,244);">
      <rect x="197" y="297" width="9" style="clip-path:url(#clipPath2); stroke:none;" height="18" />
      <rect x="197" y="362" width="9" style="clip-path:url(#clipPath2); stroke:none;" height="35" />
      <rect x="197" y="407" width="9" style="clip-path:url(#clipPath2); stroke:none;" height="112" />
      <rect x="202" y="416" width="9" style="clip-path:url(#clipPath2); fill:white; stroke:none;" height="35" />
    </g>
    <g style="font-size:11; stroke-linecap:butt; text-rendering:optimizeLegibility; color-rendering:optimizeQuality; image-rendering:optimizeQuality; font-family:sans-serif; shape-rendering:geometricPrecision; stroke-dasharray:4,4; color-interpolation:linearRGB;">
      <line x1="202" x2="210" y1="416" style="clip-path:url(#clipPath2); fill:none;" y2="416" />
      <line x1="211" x2="211" y1="416" style="clip-path:url(#clipPath2); fill:none;" y2="450" />
      <line x1="211" x2="203" y1="451" style="clip-path:url(#clipPath2); fill:none;" y2="451" />
      <line x1="202" x2="202" y1="451" style="clip-path:url(#clipPath2); fill:none;" y2="417" />
    </g>
    <g style="font-size:11; fill:white; text-rendering:optimizeLegibility; color-rendering:optimizeQuality; image-rendering:optimizeQuality; font-family:sans-serif; shape-rendering:geometricPrecision; color-interpolation:linearRGB; stroke:white;">
      <rect x="202" y="476" width="9" style="clip-path:url(#clipPath2); stroke:none;" height="35" />
    </g>
    <g style="font-size:11; stroke-linecap:butt; text-rendering:optimizeLegibility; color-rendering:optimizeQuality; image-rendering:optimizeQuality; font-family:sans-serif; shape-rendering:geometricPrecision; stroke-dasharray:4,4; color-interpolation:linearRGB;">
      <line x1="202" x2="210" y1="476" style="clip-path:url(#clipPath2); fill:none;" y2="476" />
      <line x1="211" x2="211" y1="476" style="clip-path:url(#clipPath2); fill:none;" y2="510" />
      <line x1="211" x2="203" y1="511" style="clip-path:url(#clipPath2); fill:none;" y2="511" />
      <line x1="202" x2="202" y1="511" style="clip-path:url(#clipPath2); fill:none;" y2="477" />
    </g>
    <g style="font-size:11; fill:rgb(72,167,244); text-rendering:optimizeLegibility; color-rendering:optimizeQuality; image-rendering:optimizeQuality; font-family:sans-serif; shape-rendering:geometricPrecision; color-interpolation:linearRGB; stroke:rgb(72,167,244);">
      <rect x="197" y="532" width="9" style="clip-path:url(#clipPath2); stroke:none;" height="18" />
      <rect x="282" y="130" width="108" style="clip-path:url(#clipPath3); fill:url(#linearGradient2); stroke:none;" height="23" />
      <rect x="282" y="130" width="108" style="clip-path:url(#clipPath3); fill:none; stroke:black;" height="23" />
    </g>
    <g style="font-size:14; text-rendering:optimizeLegibility; color-rendering:optimizeQuality; image-rendering:optimizeQuality; font-family:sans-serif; shape-rendering:geometricPrecision; color-interpolation:linearRGB; font-weight:bold;">
      <path d="M288.265625 146 L288.265625 135.875 L290.125 135.875 L294.8125 142.796875 L294.8125 135.875 L296.5 135.875 L296.5 146 L294.609375 146 L289.953125 139.09375 L289.953125 146 L288.265625 146 ZM302.697265625 145.1875 Q301.697265625 146.171875 300.541015625 146.171875 Q299.556640625 146.171875 298.939453125 145.5703125 Q298.322265625 144.96875 298.322265625 144.015625 Q298.322265625 142.765625 299.314453125 142.09375 Q300.306640625 141.421875 302.166015625 141.421875 L302.697265625 141.421875 L302.697265625 140.734375 Q302.697265625 139.5625 301.369140625 139.5625 Q300.181640625 139.5625 298.978515625 140.234375 L298.978515625 138.84375 Q300.353515625 138.328125 301.697265625 138.328125 Q304.650390625 138.328125 304.650390625 140.671875 L304.650390625 143.984375 Q304.650390625 144.875 305.212890625 144.875 Q305.306640625 144.875 305.478515625 144.84375 L305.525390625 145.984375 Q304.884765625 146.171875 304.384765625 146.171875 Q303.150390625 146.171875 302.791015625 145.1875 L302.697265625 145.1875 ZM302.697265625 144.109375 L302.697265625 142.578125 L302.228515625 142.578125 Q300.259765625 142.578125 300.259765625 143.8125 Q300.259765625 144.234375 300.541015625 144.515625 Q300.822265625 144.796875 301.244140625 144.796875 Q301.962890625 144.796875 302.697265625 144.109375 ZM307.255859375 146 L307.255859375 138.5 L309.193359375 138.5 L309.193359375 139.90625 Q310.083984375 138.328125 311.724609375 138.328125 Q312.568359375 138.328125 313.115234375 138.7421875 Q313.662109375 139.15625 313.787109375 139.90625 Q314.849609375 138.328125 316.333984375 138.328125 Q318.396484375 138.328125 318.396484375 140.59375 L318.396484375 146 L316.443359375 146 L316.443359375 141.25 Q316.443359375 139.921875 315.568359375 139.921875 Q314.646484375 139.921875 313.787109375 141.234375 L313.787109375 146 L311.849609375 146 L311.849609375 141.25 Q311.849609375 139.921875 310.958984375 139.921875 Q310.052734375 139.921875 309.193359375 141.234375 L309.193359375 146 L307.255859375 146 ZM326.94140625 145.75 Q325.50390625 146.171875 324.20703125 146.171875 Q322.33203125 146.171875 321.24609375 145.1015625 Q320.16015625 144.03125 320.16015625 142.1875 Q320.16015625 140.453125 321.15234375 139.390625 Q322.14453125 138.328125 323.78515625 138.328125 Q325.42578125 138.328125 326.18359375 139.3671875 Q326.94140625 140.40625 326.94140625 142.65625 L322.28515625 142.65625 Q322.48828125 144.796875 324.64453125 144.796875 Q325.66015625 144.796875 326.94140625 144.328125 L326.94140625 145.75 ZM322.25390625 141.515625 L324.95703125 141.515625 Q324.95703125 139.59375 323.72265625 139.59375 Q322.45703125 139.59375 322.25390625 141.515625 ZM328.47265625 145.90625 L328.47265625 144.171875 Q330.09765625 144.859375 331.26953125 144.859375 Q332.08203125 144.859375 332.55078125 144.5 Q333.01953125 144.140625 333.01953125 143.515625 Q333.01953125 143.015625 332.72265625 142.6796875 Q332.42578125 142.34375 331.59765625 141.875 L330.92578125 141.5 Q329.56640625 140.734375 329.00390625 140.03125 Q328.44140625 139.328125 328.44140625 138.390625 Q328.44140625 137.140625 329.36328125 136.3828125 Q330.28515625 135.625 331.80078125 135.625 Q333.00390625 135.625 334.51953125 135.984375 L334.51953125 137.59375 Q332.97265625 137.015625 332.06640625 137.015625 Q331.37890625 137.015625 330.95703125 137.328125 Q330.53515625 137.640625 330.53515625 138.140625 Q330.53515625 138.5625 330.82421875 138.875 Q331.11328125 139.1875 331.92578125 139.65625 L332.66015625 140.046875 Q334.11328125 140.875 334.66796875 141.5625 Q335.22265625 142.25 335.22265625 143.25 Q335.22265625 144.65625 334.17578125 145.453125 Q333.12890625 146.25 331.30078125 146.25 Q330.08203125 146.25 328.47265625 145.90625 ZM340.189453125 146.171875 Q338.423828125 146.171875 337.392578125 145.109375 Q336.361328125 144.046875 336.361328125 142.25 Q336.361328125 140.421875 337.400390625 139.375 Q338.439453125 138.328125 340.236328125 138.328125 Q342.033203125 138.328125 343.072265625 139.375 Q344.111328125 140.421875 344.111328125 142.234375 Q344.111328125 144.078125 343.064453125 145.125 Q342.017578125 146.171875 340.189453125 146.171875 ZM340.220703125 144.90625 Q341.955078125 144.90625 341.955078125 142.234375 Q341.955078125 141.015625 341.494140625 140.3046875 Q341.033203125 139.59375 340.236328125 139.59375 Q339.439453125 139.59375 338.970703125 140.3046875 Q338.501953125 141.015625 338.501953125 142.25 Q338.501953125 143.46875 338.962890625 144.1875 Q339.423828125 144.90625 340.220703125 144.90625 ZM345.974609375 146 L345.974609375 135.203125 L347.990234375 135.203125 L347.990234375 146 L345.974609375 146 ZM352.38671875 146 L349.51171875 138.5 L351.65234375 138.5 L353.74609375 143.90625 L355.82421875 138.5 L357.29296875 138.5 L354.40234375 146 L352.38671875 146 ZM364.9423828125 145.75 Q363.5048828125 146.171875 362.2080078125 146.171875 Q360.3330078125 146.171875 359.2470703125 145.1015625 Q358.1611328125 144.03125 358.1611328125 142.1875 Q358.1611328125 140.453125 359.1533203125 139.390625 Q360.1455078125 138.328125 361.7861328125 138.328125 Q363.4267578125 138.328125 364.1845703125 139.3671875 Q364.9423828125 140.40625 364.9423828125 142.65625 L360.2861328125 142.65625 Q360.4892578125 144.796875 362.6455078125 144.796875 Q363.6611328125 144.796875 364.9423828125 144.328125 L364.9423828125 145.75 ZM360.2548828125 141.515625 L362.9580078125 141.515625 Q362.9580078125 139.59375 361.7236328125 139.59375 Q360.4580078125 139.59375 360.2548828125 141.515625 ZM367.0361328125 146 L367.0361328125 138.5 L369.0517578125 138.5 L369.0517578125 139.90625 Q369.8486328125 138.328125 371.4580078125 138.328125 Q371.6455078125 138.328125 371.8330078125 138.359375 L371.8330078125 140.171875 Q371.3955078125 140.015625 371.0205078125 140.015625 Q369.8173828125 140.015625 369.0517578125 141.234375 L369.0517578125 146 L367.0361328125 146 ZM377.4677734375 146 L377.4677734375 143.96875 L379.4833984375 143.96875 L379.4833984375 146 L377.4677734375 146 ZM377.4677734375 140.515625 L377.4677734375 138.5 L379.4833984375 138.5 L379.4833984375 140.515625 L377.4677734375 140.515625 Z" style="clip-path:url(#clipPath3); stroke:none;" />
    </g>
    <g style="color-rendering:optimizeQuality; color-interpolation:linearRGB; text-rendering:optimizeLegibility; stroke:green; stroke-linecap:butt; stroke-miterlimit:1; shape-rendering:geometricPrecision; fill:green; stroke-dasharray:20,5; font-family:sans-serif; font-size:11; image-rendering:optimizeQuality;">
      <line x1="337" x2="337" y1="154" style="clip-path:url(#clipPath3); fill:none;" y2="571" />
    </g>
    <g style="font-size:11; fill:rgb(72,167,244); text-rendering:optimizeLegibility; color-rendering:optimizeQuality; image-rendering:optimizeQuality; font-family:sans-serif; shape-rendering:geometricPrecision; color-interpolation:linearRGB; stroke:rgb(72,167,244);">
      <rect x="334" y="245" width="9" style="clip-path:url(#clipPath3); stroke:none;" height="35" />
      <rect x="414" y="130" width="103" style="clip-path:url(#clipPath4); fill:url(#linearGradient3); stroke:none;" height="23" />
      <rect x="414" y="130" width="103" style="clip-path:url(#clipPath4); fill:none; stroke:black;" height="23" />
    </g>
    <g style="font-size:14; text-rendering:optimizeLegibility; color-rendering:optimizeQuality; image-rendering:optimizeQuality; font-family:sans-serif; shape-rendering:geometricPrecision; color-interpolation:linearRGB; font-weight:bold;">
      <path d="M421.90625 146 L418.171875 135.875 L420.421875 135.875 L423.3125 143.703125 L426.125 135.875 L427.640625 135.875 L424.015625 146 L421.90625 146 ZM433.4853515625 146.25 Q431.1728515625 146.25 429.7978515625 144.8046875 Q428.4228515625 143.359375 428.4228515625 140.9375 Q428.4228515625 138.5 429.8056640625 137.0625 Q431.1884765625 135.625 433.5478515625 135.625 Q435.8916015625 135.625 437.2822265625 137.0625 Q438.6728515625 138.5 438.6728515625 140.921875 Q438.6728515625 143.390625 437.2822265625 144.8203125 Q435.8916015625 146.25 433.4853515625 146.25 ZM433.5166015625 144.859375 Q434.8603515625 144.859375 435.6494140625 143.796875 Q436.4384765625 142.734375 436.4384765625 140.90625 Q436.4384765625 139.15625 435.6494140625 138.0859375 Q434.8603515625 137.015625 433.5478515625 137.015625 Q432.2353515625 137.015625 431.4462890625 138.0859375 Q430.6572265625 139.15625 430.6572265625 140.9375 Q430.6572265625 142.703125 431.4384765625 143.78125 Q432.2197265625 144.859375 433.5166015625 144.859375 ZM440.5732421875 146 L440.5732421875 135.875 L444.3544921875 135.875 Q447.4482421875 135.875 447.4482421875 138.390625 Q447.4482421875 139.328125 446.9248046875 140.09375 Q446.4013671875 140.859375 445.4794921875 141.28125 L448.7919921875 146 L446.2294921875 146 L443.7138671875 141.859375 L442.5576171875 141.859375 L442.5576171875 146 L440.5732421875 146 ZM442.5576171875 140.46875 L443.0419921875 140.46875 Q445.3232421875 140.46875 445.3232421875 138.625 Q445.3232421875 137.265625 443.2919921875 137.265625 L442.5576171875 137.265625 L442.5576171875 140.46875 ZM456.341796875 145.75 Q454.904296875 146.171875 453.607421875 146.171875 Q451.732421875 146.171875 450.646484375 145.1015625 Q449.560546875 144.03125 449.560546875 142.1875 Q449.560546875 140.453125 450.552734375 139.390625 Q451.544921875 138.328125 453.185546875 138.328125 Q454.826171875 138.328125 455.583984375 139.3671875 Q456.341796875 140.40625 456.341796875 142.65625 L451.685546875 142.65625 Q451.888671875 144.796875 454.044921875 144.796875 Q455.060546875 144.796875 456.341796875 144.328125 L456.341796875 145.75 ZM451.654296875 141.515625 L454.357421875 141.515625 Q454.357421875 139.59375 453.123046875 139.59375 Q451.857421875 139.59375 451.654296875 141.515625 ZM458.482421875 148.328125 L458.654296875 146.859375 Q459.904296875 147.4375 461.044921875 147.4375 Q462.154296875 147.4375 462.654296875 146.9609375 Q463.154296875 146.484375 463.154296875 145.40625 L463.154296875 144.375 Q462.419921875 146 460.716796875 146 Q459.373046875 146 458.591796875 145 Q457.810546875 144 457.810546875 142.28125 Q457.810546875 140.484375 458.693359375 139.40625 Q459.576171875 138.328125 461.029296875 138.328125 Q462.185546875 138.328125 463.154296875 139.25 L463.373046875 138.5 L465.185546875 138.5 L465.185546875 144.21875 Q465.185546875 145.9375 464.982421875 146.6953125 Q464.779296875 147.453125 464.169921875 147.984375 Q463.154296875 148.859375 461.326171875 148.859375 Q460.013671875 148.859375 458.482421875 148.328125 ZM463.154296875 143.203125 L463.154296875 140.4375 Q462.419921875 139.609375 461.623046875 139.609375 Q460.857421875 139.609375 460.412109375 140.3046875 Q459.966796875 141 459.966796875 142.171875 Q459.966796875 144.375 461.373046875 144.375 Q462.357421875 144.375 463.154296875 143.203125 ZM467.6708984375 146 L467.6708984375 138.5 L469.6865234375 138.5 L469.6865234375 146 L467.6708984375 146 ZM467.6708984375 137.234375 L467.6708984375 135.546875 L469.6865234375 135.546875 L469.6865234375 137.234375 L467.6708984375 137.234375 ZM472.0205078125 145.765625 L472.0205078125 144.28125 Q473.5361328125 144.90625 474.5986328125 144.90625 Q475.8330078125 144.90625 475.8330078125 144.0625 Q475.8330078125 143.515625 474.8173828125 143.09375 L474.1298828125 142.828125 Q473.0205078125 142.375 472.5361328125 141.859375 Q472.0517578125 141.34375 472.0517578125 140.578125 Q472.0517578125 139.5 472.8720703125 138.9140625 Q473.6923828125 138.328125 475.1455078125 138.328125 Q476.0673828125 138.328125 477.3330078125 138.59375 L477.3330078125 140.015625 Q476.1142578125 139.59375 475.3173828125 139.59375 Q474.0517578125 139.59375 474.0517578125 140.359375 Q474.0517578125 140.875 474.9892578125 141.234375 L475.5673828125 141.453125 Q476.8955078125 141.953125 477.4111328125 142.46875 Q477.9267578125 142.984375 477.9267578125 143.796875 Q477.9267578125 144.84375 477.0439453125 145.5078125 Q476.1611328125 146.171875 474.7548828125 146.171875 Q473.4111328125 146.171875 472.0205078125 145.765625 ZM484.0146484375 145.953125 Q483.2802734375 146.171875 482.8740234375 146.171875 Q480.2333984375 146.171875 480.2333984375 143.703125 L480.2333984375 139.765625 L479.3896484375 139.765625 L479.3896484375 138.5 L480.2333984375 138.5 L480.2333984375 137.234375 L482.2646484375 137 L482.2646484375 138.5 L483.8583984375 138.5 L483.8583984375 139.765625 L482.2646484375 139.765625 L482.2646484375 143.4375 Q482.2646484375 144.828125 483.3896484375 144.828125 Q483.6396484375 144.828125 484.0146484375 144.734375 L484.0146484375 145.953125 ZM485.8134765625 146 L485.8134765625 138.5 L487.8291015625 138.5 L487.8291015625 139.90625 Q488.6259765625 138.328125 490.2353515625 138.328125 Q490.4228515625 138.328125 490.6103515625 138.359375 L490.6103515625 140.171875 Q490.1728515625 140.015625 489.7978515625 140.015625 Q488.5947265625 140.015625 487.8291015625 141.234375 L487.8291015625 146 L485.8134765625 146 ZM492.208984375 148.703125 L493.912109375 146 L491.130859375 138.5 L493.302734375 138.5 L495.162109375 143.515625 L497.365234375 138.5 L498.896484375 138.5 L494.271484375 148.703125 L492.208984375 148.703125 ZM504.4072265625 146 L504.4072265625 143.96875 L506.4228515625 143.96875 L506.4228515625 146 L504.4072265625 146 ZM504.4072265625 140.515625 L504.4072265625 138.5 L506.4228515625 138.5 L506.4228515625 140.515625 L504.4072265625 140.515625 Z" style="clip-path:url(#clipPath4); stroke:none;" />
    </g>
    <g style="color-rendering:optimizeQuality; color-interpolation:linearRGB; text-rendering:optimizeLegibility; stroke:green; stroke-linecap:butt; stroke-miterlimit:1; shape-rendering:geometricPrecision; fill:green; stroke-dasharray:20,5; font-family:sans-serif; font-size:11; image-rendering:optimizeQuality;">
      <line x1="465" x2="465" y1="154" style="clip-path:url(#clipPath4); fill:none;" y2="571" />
    </g>
    <g style="font-size:11; fill:rgb(72,167,244); text-rendering:optimizeLegibility; color-rendering:optimizeQuality; image-rendering:optimizeQuality; font-family:sans-serif; shape-rendering:geometricPrecision; color-interpolation:linearRGB; stroke:rgb(72,167,244);">
      <rect x="461" y="416" width="9" style="clip-path:url(#clipPath4); stroke:none;" height="35" />
      <rect x="556" y="130" width="95" style="clip-path:url(#clipPath5); fill:url(#linearGradient4); stroke:none;" height="23" />
      <rect x="556" y="130" width="95" style="clip-path:url(#clipPath5); fill:none; stroke:black;" height="23" />
    </g>
    <g style="font-size:14; text-rendering:optimizeLegibility; color-rendering:optimizeQuality; image-rendering:optimizeQuality; font-family:sans-serif; shape-rendering:geometricPrecision; color-interpolation:linearRGB; font-weight:bold;">
      <path d="M564.90625 146 L561.171875 135.875 L563.421875 135.875 L566.3125 143.703125 L569.125 135.875 L570.640625 135.875 L567.015625 146 L564.90625 146 ZM576.4853515625 146.25 Q574.1728515625 146.25 572.7978515625 144.8046875 Q571.4228515625 143.359375 571.4228515625 140.9375 Q571.4228515625 138.5 572.8056640625 137.0625 Q574.1884765625 135.625 576.5478515625 135.625 Q578.8916015625 135.625 580.2822265625 137.0625 Q581.6728515625 138.5 581.6728515625 140.921875 Q581.6728515625 143.390625 580.2822265625 144.8203125 Q578.8916015625 146.25 576.4853515625 146.25 ZM576.5166015625 144.859375 Q577.8603515625 144.859375 578.6494140625 143.796875 Q579.4384765625 142.734375 579.4384765625 140.90625 Q579.4384765625 139.15625 578.6494140625 138.0859375 Q577.8603515625 137.015625 576.5478515625 137.015625 Q575.2353515625 137.015625 574.4462890625 138.0859375 Q573.6572265625 139.15625 573.6572265625 140.9375 Q573.6572265625 142.703125 574.4384765625 143.78125 Q575.2197265625 144.859375 576.5166015625 144.859375 ZM583.0107421875 145.90625 L583.0107421875 144.171875 Q584.6357421875 144.859375 585.8076171875 144.859375 Q586.6201171875 144.859375 587.0888671875 144.5 Q587.5576171875 144.140625 587.5576171875 143.515625 Q587.5576171875 143.015625 587.2607421875 142.6796875 Q586.9638671875 142.34375 586.1357421875 141.875 L585.4638671875 141.5 Q584.1044921875 140.734375 583.5419921875 140.03125 Q582.9794921875 139.328125 582.9794921875 138.390625 Q582.9794921875 137.140625 583.9013671875 136.3828125 Q584.8232421875 135.625 586.3388671875 135.625 Q587.5419921875 135.625 589.0576171875 135.984375 L589.0576171875 137.59375 Q587.5107421875 137.015625 586.6044921875 137.015625 Q585.9169921875 137.015625 585.4951171875 137.328125 Q585.0732421875 137.640625 585.0732421875 138.140625 Q585.0732421875 138.5625 585.3623046875 138.875 Q585.6513671875 139.1875 586.4638671875 139.65625 L587.1982421875 140.046875 Q588.6513671875 140.875 589.2060546875 141.5625 Q589.7607421875 142.25 589.7607421875 143.25 Q589.7607421875 144.65625 588.7138671875 145.453125 Q587.6669921875 146.25 585.8388671875 146.25 Q584.6201171875 146.25 583.0107421875 145.90625 ZM597.6806640625 145.75 Q596.2431640625 146.171875 594.9462890625 146.171875 Q593.0712890625 146.171875 591.9853515625 145.1015625 Q590.8994140625 144.03125 590.8994140625 142.1875 Q590.8994140625 140.453125 591.8916015625 139.390625 Q592.8837890625 138.328125 594.5244140625 138.328125 Q596.1650390625 138.328125 596.9228515625 139.3671875 Q597.6806640625 140.40625 597.6806640625 142.65625 L593.0244140625 142.65625 Q593.2275390625 144.796875 595.3837890625 144.796875 Q596.3994140625 144.796875 597.6806640625 144.328125 L597.6806640625 145.75 ZM592.9931640625 141.515625 L595.6962890625 141.515625 Q595.6962890625 139.59375 594.4619140625 139.59375 Q593.1962890625 139.59375 592.9931640625 141.515625 ZM599.7744140625 146 L599.7744140625 138.5 L601.7900390625 138.5 L601.7900390625 139.90625 Q602.5869140625 138.328125 604.1962890625 138.328125 Q604.3837890625 138.328125 604.5712890625 138.359375 L604.5712890625 140.171875 Q604.1337890625 140.015625 603.7587890625 140.015625 Q602.5556640625 140.015625 601.7900390625 141.234375 L601.7900390625 146 L599.7744140625 146 ZM607.998046875 146 L605.123046875 138.5 L607.263671875 138.5 L609.357421875 143.90625 L611.435546875 138.5 L612.904296875 138.5 L610.013671875 146 L607.998046875 146 ZM614.4443359375 146 L614.4443359375 138.5 L616.4599609375 138.5 L616.4599609375 146 L614.4443359375 146 ZM614.4443359375 137.234375 L614.4443359375 135.546875 L616.4599609375 135.546875 L616.4599609375 137.234375 L614.4443359375 137.234375 ZM624.5283203125 145.828125 Q623.2783203125 146.171875 622.2001953125 146.171875 Q620.4033203125 146.171875 619.3642578125 145.1171875 Q618.3251953125 144.0625 618.3251953125 142.234375 Q618.3251953125 140.40625 619.3955078125 139.3671875 Q620.4658203125 138.328125 622.3564453125 138.328125 Q623.2783203125 138.328125 624.4658203125 138.609375 L624.4658203125 140.078125 Q623.2314453125 139.671875 622.4814453125 139.671875 Q621.5751953125 139.671875 621.0205078125 140.375 Q620.4658203125 141.078125 620.4658203125 142.21875 Q620.4658203125 143.40625 621.0673828125 144.1171875 Q621.6689453125 144.828125 622.6533203125 144.828125 Q623.5751953125 144.828125 624.5283203125 144.4375 L624.5283203125 145.828125 ZM632.5576171875 145.75 Q631.1201171875 146.171875 629.8232421875 146.171875 Q627.9482421875 146.171875 626.8623046875 145.1015625 Q625.7763671875 144.03125 625.7763671875 142.1875 Q625.7763671875 140.453125 626.7685546875 139.390625 Q627.7607421875 138.328125 629.4013671875 138.328125 Q631.0419921875 138.328125 631.7998046875 139.3671875 Q632.5576171875 140.40625 632.5576171875 142.65625 L627.9013671875 142.65625 Q628.1044921875 144.796875 630.2607421875 144.796875 Q631.2763671875 144.796875 632.5576171875 144.328125 L632.5576171875 145.75 ZM627.8701171875 141.515625 L630.5732421875 141.515625 Q630.5732421875 139.59375 629.3388671875 139.59375 Q628.0732421875 139.59375 627.8701171875 141.515625 ZM638.71875 146 L638.71875 143.96875 L640.734375 143.96875 L640.734375 146 L638.71875 146 ZM638.71875 140.515625 L638.71875 138.5 L640.734375 138.5 L640.734375 140.515625 L638.71875 140.515625 Z" style="clip-path:url(#clipPath5); stroke:none;" />
    </g>
    <g style="color-rendering:optimizeQuality; color-interpolation:linearRGB; text-rendering:optimizeLegibility; stroke:green; stroke-linecap:butt; stroke-miterlimit:1; shape-rendering:geometricPrecision; fill:green; stroke-dasharray:20,5; font-family:sans-serif; font-size:11; image-rendering:optimizeQuality;">
      <line x1="603" x2="603" y1="154" style="clip-path:url(#clipPath5); fill:none;" y2="571" />
    </g>
    <g style="font-size:11; fill:rgb(72,167,244); text-rendering:optimizeLegibility; color-rendering:optimizeQuality; image-rendering:optimizeQuality; font-family:sans-serif; shape-rendering:geometricPrecision; color-interpolation:linearRGB; stroke:rgb(72,167,244);">
      <rect x="599" y="476" width="9" style="clip-path:url(#clipPath5); stroke:none;" height="35" />
      <circle style="clip-path:url(#clipPath6); fill:white; stroke:none;" r="5.5" cx="44.5" cy="91.5" />
      <circle style="clip-path:url(#clipPath6); fill:none; stroke:rgb(255,128,255);" r="5.5" cx="44.5" cy="91.5" />
      <line x1="44" x2="44" y1="97" style="clip-path:url(#clipPath6); fill:none; stroke:rgb(255,128,255);" y2="116" />
      <line x1="44" x2="35" y1="116" style="clip-path:url(#clipPath6); fill:none; stroke:rgb(255,128,255);" y2="130" />
      <line x1="44" x2="54" y1="116" style="clip-path:url(#clipPath6); fill:none; stroke:rgb(255,128,255);" y2="130" />
      <line x1="35" x2="53" y1="105" style="clip-path:url(#clipPath6); fill:none; stroke:rgb(255,128,255);" y2="105" />
      <rect x="19" y="130" width="51" style="clip-path:url(#clipPath6); fill:url(#linearGradient5); stroke:none;" height="23" />
      <rect x="19" y="130" width="51" style="clip-path:url(#clipPath6); fill:none; stroke:black;" height="23" />
    </g>
    <g style="font-size:14; text-rendering:optimizeLegibility; color-rendering:optimizeQuality; image-rendering:optimizeQuality; font-family:sans-serif; shape-rendering:geometricPrecision; color-interpolation:linearRGB; font-weight:bold;">
      <path d="M43.3330078125 146 L43.3330078125 143.96875 L45.3486328125 143.96875 L45.3486328125 146 L43.3330078125 146 ZM43.3330078125 140.515625 L43.3330078125 138.5 L45.3486328125 138.5 L45.3486328125 140.515625 L43.3330078125 140.515625 Z" style="clip-path:url(#clipPath6); stroke:none;" />
    </g>
    <g style="color-rendering:optimizeQuality; color-interpolation:linearRGB; text-rendering:optimizeLegibility; stroke:green; stroke-linecap:butt; stroke-miterlimit:1; shape-rendering:geometricPrecision; fill:green; stroke-dasharray:20,5; font-family:sans-serif; font-size:11; image-rendering:optimizeQuality;">
      <line x1="45" x2="45" y1="154" style="clip-path:url(#clipPath6); fill:none;" y2="585" />
    </g>
    <g style="font-size:11; fill:rgb(72,167,244); text-rendering:optimizeLegibility; color-rendering:optimizeQuality; image-rendering:optimizeQuality; font-family:sans-serif; shape-rendering:geometricPrecision; color-interpolation:linearRGB; stroke:rgb(72,167,244);">
      <rect x="42" y="173" width="9" style="clip-path:url(#clipPath6); stroke:none;" height="18" />
      <rect x="42" y="305" width="9" style="clip-path:url(#clipPath6); stroke:none;" height="35" />
      <rect x="42" y="353" width="9" style="clip-path:url(#clipPath6); stroke:none;" height="18" />
      <rect x="42" y="539" width="9" style="clip-path:url(#clipPath6); stroke:none;" height="35" />
      <line x1="210" x2="334" y1="244" style="clip-path:url(#clipPath7); fill:none; stroke:black;" y2="245" />
      <path style="fill:black; clip-path:url(#clipPath7); fill-rule:evenodd; stroke:none;" d="M325 247 L334 245 L326 242 Z" />
      <path style="fill:none; clip-path:url(#clipPath7); fill-rule:evenodd; stroke:black;" d="M325 247 L334 245 L326 242 Z" />
    </g>
    <g style="font-size:11; stroke-linecap:butt; text-rendering:optimizeLegibility; color-rendering:optimizeQuality; image-rendering:optimizeQuality; font-family:sans-serif; shape-rendering:geometricPrecision; stroke-dasharray:4,4; color-interpolation:linearRGB;">
      <line x1="334" x2="210" y1="280" style="clip-path:url(#clipPath7); fill:none;" y2="279" />
      <path style="stroke-linecap:square; clip-path:url(#clipPath7); fill-rule:evenodd; stroke-dasharray:none; stroke:none;" d="M219 277 L210 279 L218 282 Z" />
      <path style="stroke-linecap:square; clip-path:url(#clipPath7); fill:none; fill-rule:evenodd; stroke-dasharray:none;" d="M219 277 L210 279 L218 282 Z" />
      <line x1="210" x2="462" y1="415" style="stroke-linecap:square; clip-path:url(#clipPath7); fill:none; stroke-dasharray:none;" y2="415" />
      <path style="stroke-linecap:square; clip-path:url(#clipPath7); fill-rule:evenodd; stroke-dasharray:none; stroke:none;" d="M453 418 L462 415 L453 412 Z" />
      <path style="stroke-linecap:square; clip-path:url(#clipPath7); fill:none; fill-rule:evenodd; stroke-dasharray:none;" d="M453 418 L462 415 L453 412 Z" />
      <line x1="462" x2="210" y1="450" style="clip-path:url(#clipPath7); fill:none;" y2="450" />
      <path style="stroke-linecap:square; clip-path:url(#clipPath7); fill-rule:evenodd; stroke-dasharray:none; stroke:none;" d="M219 447 L210 450 L219 453 Z" />
      <path style="stroke-linecap:square; clip-path:url(#clipPath7); fill:none; fill-rule:evenodd; stroke-dasharray:none;" d="M219 447 L210 450 L219 453 Z" />
      <line x1="210" x2="600" y1="475" style="stroke-linecap:square; clip-path:url(#clipPath7); fill:none; stroke-dasharray:none;" y2="476" />
      <path style="stroke-linecap:square; clip-path:url(#clipPath7); fill-rule:evenodd; stroke-dasharray:none; stroke:none;" d="M591 479 L600 476 L591 473 Z" />
      <path style="stroke-linecap:square; clip-path:url(#clipPath7); fill:none; fill-rule:evenodd; stroke-dasharray:none;" d="M591 479 L600 476 L591 473 Z" />
      <line x1="600" x2="210" y1="510" style="clip-path:url(#clipPath7); fill:none;" y2="510" />
      <path style="stroke-linecap:square; clip-path:url(#clipPath7); fill-rule:evenodd; stroke-dasharray:none; stroke:none;" d="M219 507 L210 510 L219 513 Z" />
      <path style="stroke-linecap:square; clip-path:url(#clipPath7); fill:none; fill-rule:evenodd; stroke-dasharray:none;" d="M219 507 L210 510 L219 513 Z" />
    </g>
    <g style="font-size:11; fill:rgb(102,102,255); text-rendering:optimizeLegibility; color-rendering:optimizeQuality; image-rendering:optimizeQuality; font-family:sans-serif; shape-rendering:geometricPrecision; color-interpolation:linearRGB; stroke:rgb(102,102,255);">
      <line x1="50" x2="197" y1="182" style="clip-path:url(#clipPath7); fill:none;" y2="182" />
      <path d="M188 185 L197 182 L188 179" style="fill:none; clip-path:url(#clipPath7); fill-rule:evenodd;" />
      <line x1="197" x2="50" y1="305" style="clip-path:url(#clipPath7); fill:none; stroke:black;" y2="305" />
      <path style="fill:none; clip-path:url(#clipPath7); fill-rule:evenodd; stroke:black;" d="M59 302 L50 305 L59 308" />
      <line x1="50" x2="197" y1="362" style="clip-path:url(#clipPath7); fill:none; stroke:black;" y2="362" />
      <path style="fill:none; clip-path:url(#clipPath7); fill-rule:evenodd; stroke:black;" d="M188 365 L197 362 L188 359" />
      <line x1="197" x2="50" y1="541" style="clip-path:url(#clipPath7); fill:none; stroke:black;" y2="540" />
      <path style="fill:none; clip-path:url(#clipPath7); fill-rule:evenodd; stroke:black;" d="M59 538 L50 540 L58 543" />
    </g>
  </g>
</svg>
